<svg xmlns="http://www.w3.org/2000/svg" width="48" height="48" viewBox="0 0 48 48" fill="none">
  <!-- 채팅 버블 배경 -->
  <path d="M42 31a4 4 0 0 1-4 4H14L6 43V10a4 4 0 0 1 4-4h28a4 4 0 0 1 4 4v21z" fill="#2563EB"/>
  <!-- 로봇 눈 (AI 모티브) -->
  <circle cx="18" cy="19" r="3" fill="#FFFFFF"/>
  <circle cx="30" cy="19" r="3" fill="#FFFFFF"/>
  <!-- 눈동자 -->
  <circle cx="19" cy="19" r="1.2" fill="#1D4ED8"/>
  <circle cx="31" cy="19" r="1.2" fill="#1D4ED8"/>
  <!-- 입 (스마일) -->
  <path d="M18 27c0 0 3 3 6 3s6-3 6-3" stroke="#FFFFFF" stroke-width="2.5" stroke-linecap="round" fill="none"/>
  <!-- 안테나 -->
  <line x1="24" y1="6" x2="24" y2="2" stroke="#2563EB" stroke-width="2" stroke-linecap="round"/>
  <circle cx="24" cy="1.5" r="1.5" fill="#2563EB"/>
</svg>
