<svg xmlns="http://www.w3.org/2000/svg" width="128" height="128" viewBox="0 0 128 128" fill="none">
  <!-- 배경 원 -->
  <circle cx="64" cy="64" r="60" fill="#EFF6FF"/>

  <!-- 채팅 버블 -->
  <path d="M104 80a8 8 0 0 1-8 8H40L24 104V32a8 8 0 0 1 8-8h64a8 8 0 0 1 8 8v48z" fill="#2563EB"/>

  <!-- 버블 하이라이트 -->
  <path d="M104 80a8 8 0 0 1-8 8H40L24 104V32a8 8 0 0 1 8-8h64a8 8 0 0 1 8 8v48z" fill="url(#grad)" opacity="0.3"/>

  <!-- 로봇 눈 -->
  <circle cx="50" cy="52" r="7" fill="#FFFFFF"/>
  <circle cx="78" cy="52" r="7" fill="#FFFFFF"/>

  <!-- 눈동자 -->
  <circle cx="52" cy="52" r="3" fill="#1D4ED8"/>
  <circle cx="80" cy="52" r="3" fill="#1D4ED8"/>

  <!-- 눈 반사광 -->
  <circle cx="49" cy="50" r="1.5" fill="#FFFFFF" opacity="0.8"/>
  <circle cx="77" cy="50" r="1.5" fill="#FFFFFF" opacity="0.8"/>

  <!-- 입 (스마일) -->
  <path d="M48 68c0 0 7 8 16 8s16-8 16-8" stroke="#FFFFFF" stroke-width="4" stroke-linecap="round" fill="none"/>

  <!-- 안테나 -->
  <line x1="64" y1="24" x2="64" y2="14" stroke="#2563EB" stroke-width="4" stroke-linecap="round"/>
  <circle cx="64" cy="11" r="4" fill="#2563EB"/>

  <!-- 그라디언트 정의 -->
  <defs>
    <linearGradient id="grad" x1="24" y1="24" x2="104" y2="104">
      <stop offset="0%" stop-color="#FFFFFF"/>
      <stop offset="100%" stop-color="#000000" stop-opacity="0"/>
    </linearGradient>
  </defs>
</svg>
